<?xml version="1.0" encoding="UTF-8"?>
<svg width="223px" height="36px" viewBox="0 0 223 36" version="1.1" xmlns="http://www.w3.org/2000/svg" xmlns:xlink="http://www.w3.org/1999/xlink">
    <!-- Generator: Sketch 52.1 (67048) - http://www.bohemiancoding.com/sketch -->
    <title>Icon/title</title>
    <desc>Created with Sketch.</desc>
    <defs>
        <linearGradient x1="50.0555556%" y1="94.1503497%" x2="50.0555556%" y2="0.436538462%" id="linearGradient-1">
            <stop stop-color="#78D431" offset="0%"></stop>
            <stop stop-color="#9EEE69" offset="100%"></stop>
            <stop stop-color="#9EEE69" offset="100%"></stop>
        </linearGradient>
        <linearGradient x1="50.0888889%" y1="93.5351252%" x2="50.0888889%" y2="-0.0360587002%" id="linearGradient-2">
            <stop stop-color="#E4E6E6" offset="0%"></stop>
            <stop stop-color="#F5F5FF" offset="100%"></stop>
        </linearGradient>
    </defs>
    <g id="Icon/title" stroke="none" stroke-width="1" fill="none" fill-rule="evenodd">
        <g id="Main-logo">
            <g id="symbol-copy">
                <path d="M0,13.3865775 C0,17.4025507 2.19634279,21.0714645 5.59069074,23.5008804 C5.89019203,23.6992001 6.03994267,23.9966796 6.03994267,24.3933189 C6.03994267,24.4924787 5.99002579,24.6412185 5.99002579,24.7403783 C5.74044139,25.7319767 5.29118945,27.3681139 5.24127257,27.4176938 C5.19135569,27.5664336 5.14143881,27.6655934 5.14143881,27.8143331 C5.14143881,28.1118126 5.39102321,28.3597122 5.6905245,28.3597122 C5.79035827,28.3597122 5.89019203,28.3101323 5.99002579,28.2605524 L9.53412439,26.2277758 C9.7837088,26.0790361 10.0832101,25.9798762 10.3827114,25.9798762 C10.532462,25.9798762 10.7321295,25.9798762 10.8818802,26.0294562 C12.5291373,26.5252553 14.326145,26.7731549 16.1730696,26.7731549 C25.1081914,26.7731549 32.3461393,20.773985 32.3461393,13.3865775 C32.3461393,5.99916989 25.1081914,0 16.1730696,0 C7.23794783,3.52286495e-15 0,5.99916989 0,13.3865775" id="XMLID_140_" fill="url(#linearGradient-1)"></path>
                <path d="M31.2419538,34.6512827 C32.7856484,34.6512827 34.2795464,34.4514728 35.6240546,34.0518529 C35.7236478,34.0019004 35.8730376,34.0019004 36.0224274,34.0019004 C36.2714104,34.0019004 36.5203934,34.1018053 36.7195798,34.2017103 L39.6575792,35.900095 C39.7571724,35.9500475 39.806969,36 39.9065622,36 C40.1555452,36 40.3547316,35.80019 40.3547316,35.5504276 C40.3547316,35.4505226 40.304935,35.3506176 40.304935,35.2007601 C40.304935,35.1508077 39.9065622,33.8020904 39.7073758,32.9528981 C39.6575792,32.8529931 39.6575792,32.7530881 39.6575792,32.6531831 C39.6575792,32.3534682 39.806969,32.1037057 40.055952,31.9038958 C42.8943582,29.8558436 44.6870358,26.8087417 44.6870358,23.4119723 C44.6870358,17.2178634 38.6616472,12.1726619 31.2419538,12.1726619 C23.8222604,12.1726619 17.7968718,17.167911 17.7968718,23.4119723 C17.7968718,29.6060812 23.8222604,34.6512827 31.2419538,34.6512827 Z" id="XMLID_137_" fill="url(#linearGradient-2)"></path>
                <path d="M12.8605132,9.0647482 C12.8605132,10.2211812 11.9421209,11.1366906 10.7820464,11.1366906 C9.62197195,11.1366906 8.70357965,10.2211812 8.70357965,9.0647482 C8.70357965,7.90831521 9.62197195,6.99280576 10.7820464,6.99280576 C11.9421209,6.99280576 12.8605132,7.90831521 12.8605132,9.0647482" id="XMLID_135_" fill="#187E28"></path>
                <path d="M23.6425596,9.0647482 C23.6425596,10.2211812 22.7241673,11.1366906 21.5640929,11.1366906 C20.4040184,11.1366906 19.4856261,10.2211812 19.4856261,9.0647482 C19.4856261,7.90831521 20.4040184,6.99280576 21.5640929,6.99280576 C22.7241673,6.99280576 23.6425596,7.90831521 23.6425596,9.0647482" id="XMLID_134_" fill="#187E28"></path>
                <path d="M34.0348935,19.942446 C34.0348935,20.9496403 34.8431862,21.7553957 35.853552,21.7553957 C36.8639178,21.7553957 37.6722104,20.9496403 37.6722104,19.942446 C37.6722104,18.9352518 36.8639178,18.1294964 35.853552,18.1294964 C34.8431862,18.1294964 34.0348935,18.9352518 34.0348935,19.942446" id="XMLID_133_" fill="#858C8C"></path>
                <path d="M25.0715055,19.942446 C25.0715055,20.9496403 25.8797982,21.7553957 26.890164,21.7553957 C27.9005298,21.7553957 28.7088224,20.9496403 28.7088224,19.942446 C28.7088224,18.9352518 27.9005298,18.1294964 26.890164,18.1294964 C25.8797982,18.1294964 25.0715055,18.9352518 25.0715055,19.942446" id="XMLID_132_" fill="#858C8C"></path>
            </g>
            <g id="Group-51" transform="translate(55.072874, 4.500000)" fill="#FFFFFF">
                <g id="Group-48">
                    <polygon id="Fill-5" points="16.8936736 2.70270989 15.4940028 2.70270989 15.4940028 7.6086935 12.8502362 7.6086935 12.8502362 0.631852526 11.450062 0.631852526 11.450062 7.6086935 8.69653704 7.6086935 8.69653704 2.70270989 7.29686629 2.70270989 7.29686629 9.00516642 16.8936736 9.00516642"></polygon>
                    <path d="M1.2274307,8.68800989 C3.39893428,6.51873157 5.25526021,3.91409114 6.63126746,1.09704221 L5.32474027,0.344824866 C3.97642434,3.09056882 2.28322551,5.45016114 0.382089977,7.22826635 L1.2274307,8.68800989 Z" id="Fill-7"></path>
                    <polygon id="Fill-13" points="7.73343266 13.1474335 16.2376912 13.1474335 16.2376912 11.7509606 7.73343266 11.7509606"></polygon>
                    <path d="M18.104137,20.5293571 L17.4289721,19.3628678 L17.4022877,19.3171724 L15.2549511,21.1540289 L15.2549511,15.8940311 L8.06175111,15.8940311 L8.06175111,18.0120903 C8.26565998,20.9135001 7.53964371,22.9883746 5.90434493,24.1784648 L5.8721223,24.2015636 L6.65100383,25.5488261 L6.67718472,25.5935172 L6.71746301,25.5608776 C8.75604823,23.886717 9.71618209,21.5286311 9.57067674,18.5539078 L9.57067674,17.2894997 L13.8547769,17.2894997 L13.8547769,20.4048244 C13.8014082,21.4914722 13.7470325,21.8233918 13.3734513,22.3421105 L13.3568365,22.3652093 L14.2162746,23.8505623 L14.2560494,23.818927 C15.009757,23.2158476 16.2951381,22.1171483 18.0774527,20.552958 L18.104137,20.5293571 Z" id="Fill-14"></path>
                    <path d="M6.48732291,8.25802076 L5.13296523,7.48119818 L5.11433652,7.52789792 C3.81938933,10.7557037 2.10605136,13.59786 0.0206426262,15.9750275 L0,15.9986285 L0.77586066,17.339363 L0.807076338,17.3930928 L0.847354633,17.3458909 C1.67356316,16.3832737 2.48265341,15.368433 3.25247233,14.3274807 L3.25247233,26.4468169 L4.65264656,26.4468169 L4.65264656,12.0246311 C5.28551928,10.9013266 5.89774936,9.64645932 6.47221855,8.29367326 L6.48732291,8.25802076 Z" id="Fill-15"></path>
                    <path d="M21.9834907,17.6762539 C21.0621247,15.3046101 20.3778971,12.0808214 19.9484298,8.09125749 C20.0889004,7.67296841 20.2666284,7.24614281 20.4775859,6.82283225 L24.2290056,6.82283225 C23.9395054,11.3742995 23.1842874,15.0249138 21.9834907,17.6762539 L21.9834907,17.6762539 Z M20.948842,5.42635933 C21.4875642,3.80592851 22.1048291,1.91986153 22.3132692,0.304954334 L20.8521741,0.302945743 C19.9438985,4.55061364 18.5563113,8.23688034 16.7704723,11.1463245 L17.6540774,12.6728537 L18.3020545,11.379321 C18.5462417,10.9534997 18.7441088,10.5934598 18.8931385,10.3072356 C19.3306615,14.0703309 20.0949421,17.0992862 21.1658413,19.3127535 C20.1382413,21.0848329 18.5563113,22.9257066 16.4648608,24.7851598 L16.4376729,24.8092629 L17.2447493,26.2027229 L17.2729441,26.2504269 L17.3132224,26.2127658 C19.5280251,24.1434149 21.0616212,22.3306615 21.8722219,20.8242182 C22.7966088,22.4652371 24.3609171,24.4532401 26.1764612,26.2926073 L26.217243,26.3337834 L27.0459689,24.9026623 L27.0635907,24.8725335 L27.0384167,24.8489325 C25.0904577,22.9929944 23.5452816,21.0672577 22.6858435,19.4247324 C24.2733118,16.5333656 25.2631509,12.2932299 25.6286764,6.82283225 L27.1612655,6.82283225 L27.1612655,5.42635933 L20.9483385,5.42635933 L20.948842,5.42635933 Z" id="Fill-16"></path>
                </g>
                <g id="Group-50" transform="translate(27.987854, 0.000000)">
                    <polygon id="Fill-9" points="9.73921762 14.1808536 25.3475605 14.1808536 25.3475605 12.6759168 9.73921762 12.6759168"></polygon>
                    <path d="M11.644381,24.1745983 L23.4439075,24.1745983 L23.4439075,18.5410026 L11.644381,18.5410026 L11.644381,24.1745983 Z M10.1349519,25.5710712 L24.9528332,25.5710712 L24.9528332,17.145534 L10.1349519,17.145534 L10.1349519,25.5710712 Z" id="Fill-11"></path>
                    <path d="M6.36732015,0.229381097 L6.36732015,0.229381097 C4.98980245,5.07108979 2.97034943,9.47241491 0.435837713,13.1556687 L1.26859146,14.5827727 C2.1466583,13.2872314 3.07356256,11.7642173 3.94659461,10.1668853 L3.94659461,26.4465156 L5.45501676,26.4465156 L5.45501676,7.06110136 C6.33962882,5.1594678 7.12304166,3.1091985 7.76397003,1.03382181 L6.36732015,0.229381097 Z" id="Fill-12"></path>
                    <polygon id="Fill-1" points="9.73921762 9.71173853 25.3475605 9.71173853 25.3475605 8.31576776 9.73921762 8.31576776"></polygon>
                    <path d="M17.8175332,3.84544754 L18.7897505,3.28756138 L18.8239871,3.26797762 L18.8088827,3.23232513 C18.696607,2.97221259 18.4045893,2.36109877 18.0954534,1.71433245 C17.8074636,1.11175514 17.5094042,0.489091918 17.3674232,0.169725943 L17.3477876,0.12553694 L15.9571794,0.925960469 L15.9773186,0.963119403 C16.4747555,1.89761638 16.9027124,2.75377831 17.2853562,3.58181997 C17.3407389,3.69430107 17.3744719,3.78267907 17.3855485,3.84544754 L8.20914589,3.84544754 L8.20914589,5.35088653 L26.987894,5.35088653 L26.987894,3.84544754 L17.8175332,3.84544754 Z" id="Fill-2"></path>
                </g>
                <path d="M59.4228929,2.17561983 L83.3209464,2.17561983 L83.3209464,3.58977273 L77.6465227,3.58977273 L77.6465227,12.1834711 L84.4121817,12.1834711 L84.4121817,13.706405 L77.6465227,13.706405 L77.6465227,25.998657 L76.1187933,25.998657 L76.1187933,13.706405 L66.8432931,13.706405 C67.20704,19.5080869 64.8427204,23.6779832 59.7502635,26.216219 C59.6047647,25.9261349 59.3501457,25.5997952 58.9863988,25.2371901 C58.8409,25.019627 58.7317776,24.8745871 58.6590282,24.8020661 C61.3507554,23.4241667 63.0967145,22.0100279 63.8969577,20.5596074 C64.8426997,19.0366659 65.3155636,16.752288 65.3155636,13.706405 L58.222534,13.706405 L58.222534,12.1834711 L65.3155636,12.1834711 L65.3155636,3.58977273 L59.4228929,3.58977273 L59.4228929,2.17561983 Z M66.9524166,3.58977273 L66.9524166,12.1834711 L76.1187933,12.1834711 L76.1187933,3.58977273 L66.9524166,3.58977273 Z M111.256571,25.998657 C108.492094,24.2581525 106.346019,22.553934 104.818282,20.8859504 C103.145046,22.698976 100.817101,24.5119744 97.8343762,26.325 C97.3978798,25.6723108 97.0705125,25.2009312 96.8522644,24.9108471 C100.125987,23.0253005 102.490306,21.2485621 103.945294,19.5805785 C102.05381,16.9698217 100.926211,13.5251247 100.562464,9.2463843 C100.271467,9.75403146 99.8349771,10.4792308 99.2529821,11.4220041 C98.8892351,11.9296513 98.6346161,12.3285109 98.4891173,12.618595 C98.3436186,12.401032 98.0526254,12.0746923 97.6161291,11.6395661 L97.397882,11.4220041 C99.7258623,8.30360011 101.471821,4.49630347 102.635812,0 L104.163541,0.326342975 C103.654295,2.06684755 103.035935,3.73480607 102.308441,5.3302686 L112.129559,5.3302686 L112.129559,6.74442149 L109.837965,6.74442149 C109.328719,12.2560193 107.982876,16.5709555 105.800394,19.6893595 C107.328131,21.5023851 109.474206,23.0978237 112.238682,24.4757231 C112.165933,24.6207652 112.020436,24.874585 111.802188,25.2371901 C111.511191,25.5997952 111.32932,25.853615 111.256571,25.998657 Z M86.0490347,5.11270661 L98.5982409,5.11270661 L98.5982409,6.5268595 L90.8504701,6.5268595 C90.8504701,7.90475896 90.7777218,9.60897745 90.632223,11.6395661 L96.9613879,11.6395661 C96.9613879,14.0327599 96.8158913,17.368677 96.5248938,21.6474174 C96.5976432,24.1131322 95.3972963,25.3097111 92.9238172,25.2371901 L90.8504701,25.2371901 C90.7777207,24.8020639 90.6685983,24.2944244 90.5230995,23.7142562 L91.1778407,23.7142562 C91.8325852,23.7867772 92.3054491,23.8230372 92.5964466,23.8230372 C94.2696825,23.8955582 95.1062879,23.2066188 95.1062879,21.7561983 C95.324536,18.7828364 95.4336584,15.845779 95.4336584,12.944938 L90.5230995,12.944938 C90.3048514,19.1817461 89.0681304,23.5692022 86.8128994,26.107438 L86.3764053,25.672314 C86.0126584,25.38223 85.7580393,25.1646701 85.6125406,25.0196281 C87.8677715,22.5539133 89.0317442,18.2752371 89.1044936,12.1834711 C89.2499924,9.57271422 89.3227407,7.68719588 89.3227407,6.5268595 L86.0490347,6.5268595 L86.0490347,5.11270661 Z M104.818282,18.3839876 C106.709766,15.8457518 107.910113,11.9659352 108.419359,6.74442149 L101.762823,6.74442149 L101.6537,6.96198347 C101.6537,7.03450449 101.617326,7.10702443 101.544576,7.17954545 C102.053822,12.038454 103.145046,15.7732307 104.818282,18.3839876 Z M91.1778407,0.435123967 L92.5964466,0 C92.7419454,0.435126143 93.0329386,1.26910541 93.4694349,2.50196281 C93.8331818,3.51725714 94.0514267,4.16993657 94.1241761,4.46002066 L92.7055701,4.89514463 C92.3418232,3.73480825 91.8325852,2.24814956 91.1778407,0.435123967 Z M122.932789,23.7142562 L130.571436,23.7142562 L130.571436,9.89907025 L124.133147,9.89907025 L124.133147,8.48491736 L130.571436,8.48491736 L130.571436,0.326342975 L132.099165,0.326342975 L132.099165,8.48491736 L139.083071,8.48491736 L139.083071,9.89907025 L132.099165,9.89907025 L132.099165,23.7142562 L139.956059,23.7142562 L139.956059,25.1284091 L122.932789,25.1284091 L122.932789,23.7142562 Z M114.312029,7.17954545 L114.312029,5.76539256 L122.714541,5.76539256 L122.714541,7.28832645 C121.841549,9.10135204 120.859447,10.6967906 119.768206,12.0746901 L119.768206,26.107438 L118.240477,26.107438 L118.240477,13.815186 C117.149236,14.9755223 115.839767,16.1721013 114.312029,17.4049587 C114.23928,17.1873956 114.093784,16.8247959 113.875535,16.3171488 C113.730037,16.1721067 113.657288,16.0633268 113.657288,15.9908058 C116.931011,13.597612 119.440827,10.6605546 121.186812,7.17954545 L114.312029,7.17954545 Z M117.258365,0.761466942 L118.676971,0.326342975 C119.186216,1.34163731 119.768203,2.82829599 120.422947,4.78636364 L119.004341,5.2214876 C118.495096,3.62602508 117.913109,2.13936639 117.258365,0.761466942 Z M120.641194,13.9239669 L121.73243,13.053719 C122.750921,13.9964923 123.842145,15.1205513 125.006136,16.4259298 L123.9149,17.5137397 C123.041908,16.4259243 121.950683,15.2293454 120.641194,13.9239669 Z M143.884507,2.06683884 L166.691325,2.06683884 L166.691325,3.48099174 L145.412236,3.48099174 L145.412236,23.0615702 L167.127819,23.0615702 L167.127819,24.4757231 L143.884507,24.4757231 L143.884507,2.06683884 Z M148.467695,6.85320248 L149.449807,5.87417355 C151.777787,7.8322412 154.142107,9.97157931 156.542836,12.2922521 C158.579819,10.0441003 160.471275,7.72346238 162.21726,5.3302686 L163.526742,6.20051653 C161.780757,8.66623134 159.816553,11.0231293 157.634072,13.271281 C160.980543,16.244643 163.381237,18.456501 164.836225,19.9069215 L163.526742,21.1035124 C161.271511,18.7828396 158.943566,16.5347216 156.542836,14.3590909 C154.069357,16.8973267 151.414045,19.2542247 148.576819,21.4298554 C148.504069,21.2848133 148.322198,21.0672535 148.031201,20.7771694 L147.37646,20.1244835 C149.777189,18.601542 152.50525,16.353424 155.560725,13.380062 C154.833231,12.7273728 153.77838,11.7483536 152.396142,10.4429752 C150.577408,8.77499166 149.267938,7.57841272 148.467695,6.85320248 Z" id="微信开放社区-copy"></path>
            </g>
        </g>
    </g>
</svg>